<svg width="21" height="20" viewBox="0 0 21 20" fill="none" xmlns="http://www.w3.org/2000/svg">
<path d="M10.6282 14.2354C12.882 14.2354 14.7091 12.4083 14.7091 10.1544C14.7091 7.90059 12.882 6.07349 10.6282 6.07349C8.37434 6.07349 6.54724 7.90059 6.54724 10.1544C6.54724 12.4083 8.37434 14.2354 10.6282 14.2354Z" fill="white"/>
<path d="M15.5346 0.488208C13.0893 0.421248 8.19516 0.421248 5.74994 0.488208C4.47746 0.523092 3.03492 0.839392 2.12829 1.80632C1.18619 2.81141 0.830184 4.02573 0.794075 5.38419C0.730612 7.76849 0.794075 14.9248 0.794075 14.9248C0.83542 16.2832 1.18619 17.4976 2.12829 18.5027C3.03492 19.47 4.47746 19.7859 5.74994 19.8208C8.19516 19.8878 13.0893 19.8878 15.5346 19.8208C16.807 19.7859 18.2496 19.4696 19.1562 18.5027C20.0983 17.4976 20.4543 16.2833 20.4904 14.9248V5.38419C20.4543 4.02573 20.0983 2.81141 19.1562 1.80632C18.2493 0.83908 16.8067 0.523092 15.5346 0.488208ZM10.6419 16.5051C9.38404 16.5051 8.1544 16.1326 7.1085 15.4348C6.0626 14.737 5.24742 13.7452 4.76604 12.5848C4.28466 11.4244 4.15871 10.1475 4.40412 8.91558C4.64952 7.68369 5.25525 6.55212 6.14472 5.66398C7.03419 4.77583 8.16743 4.171 9.40116 3.92596C10.6349 3.68092 11.9137 3.80668 13.0758 4.28734C14.238 4.768 15.2313 5.58197 15.9301 6.62632C16.629 7.67067 17.002 8.89849 17.002 10.1545C17.002 11.8388 16.3319 13.4541 15.1392 14.6451C13.9464 15.836 12.3287 16.5051 10.6419 16.5051ZM17.029 5.11479C16.7774 5.11473 16.5315 5.04018 16.3224 4.90058C16.1133 4.76098 15.9503 4.5626 15.8541 4.33051C15.7578 4.09842 15.7327 3.84305 15.7818 3.59669C15.8309 3.35033 15.9521 3.12405 16.13 2.94645C16.3079 2.76886 16.5345 2.64792 16.7813 2.59894C17.028 2.54995 17.2838 2.57512 17.5162 2.67127C17.7486 2.76741 17.9472 2.9302 18.087 3.13907C18.2267 3.34793 18.3013 3.59348 18.3013 3.84467C18.3013 4.01149 18.2684 4.17668 18.2045 4.3308C18.1405 4.48491 18.0468 4.62494 17.9287 4.74289C17.8105 4.86084 17.6702 4.95438 17.5159 5.0182C17.3615 5.08201 17.1961 5.11483 17.029 5.11479Z" fill="white"/>
</svg>
