<svg width="478" height="56" viewBox="0 0 478 56" fill="none" xmlns="http://www.w3.org/2000/svg">
<path d="M20.332 55.331C16.38 55.331 12.58 54.6977 8.932 53.431C5.33467 52.1643 2.548 50.4923 0.572 48.415L2.776 44.083C4.70133 46.0083 7.26 47.579 10.452 48.795C13.644 49.9603 16.9373 50.543 20.332 50.543C25.0947 50.543 28.6667 49.6817 31.048 47.959C33.4293 46.1857 34.62 43.9057 34.62 41.119C34.62 38.991 33.9613 37.2937 32.644 36.027C31.3773 34.7603 29.8067 33.7977 27.932 33.139C26.0573 32.4297 23.448 31.6697 20.104 30.859C16.1013 29.8457 12.9093 28.883 10.528 27.971C8.14667 27.0083 6.09467 25.5643 4.372 23.639C2.7 21.7137 1.864 19.1043 1.864 15.811C1.864 13.1257 2.57333 10.6937 3.992 8.515C5.41067 6.28566 7.58933 4.51233 10.528 3.195C13.4667 1.87766 17.1147 1.219 21.472 1.219C24.512 1.219 27.476 1.64966 30.364 2.511C33.3027 3.32166 35.836 4.46166 37.964 5.931L36.064 10.415C33.8347 8.94566 31.4533 7.85633 28.92 7.147C26.3867 6.387 23.904 6.007 21.472 6.007C16.8107 6.007 13.2893 6.919 10.908 8.743C8.57733 10.5163 7.412 12.8217 7.412 15.659C7.412 17.787 8.04533 19.5097 9.312 20.827C10.6293 22.0937 12.2507 23.0817 14.176 23.791C16.152 24.4497 18.7867 25.1843 22.08 25.995C25.9813 26.9577 29.1227 27.9203 31.504 28.883C33.936 29.795 35.988 31.2137 37.66 33.139C39.332 35.0137 40.168 37.5723 40.168 40.815C40.168 43.5003 39.4333 45.9577 37.964 48.187C36.5453 50.3657 34.3413 52.1137 31.352 53.431C28.3627 54.6977 24.6893 55.331 20.332 55.331ZM96.8818 1.675V54.875H91.3338V30.327H58.0458V54.875H52.4218V1.675H58.0458V25.387H91.3338V1.675H96.8818ZM137.502 55.331C132.233 55.331 127.445 54.1657 123.138 51.835C118.882 49.4537 115.538 46.211 113.106 42.107C110.725 38.003 109.534 33.3923 109.534 28.275C109.534 23.1577 110.725 18.547 113.106 14.443C115.538 10.339 118.882 7.12166 123.138 4.791C127.445 2.40966 132.233 1.219 137.502 1.219C142.771 1.219 147.509 2.38433 151.714 4.715C155.97 7.04566 159.314 10.2883 161.746 14.443C164.178 18.547 165.394 23.1577 165.394 28.275C165.394 33.3923 164.178 38.0283 161.746 42.183C159.314 46.287 155.97 49.5043 151.714 51.835C147.509 54.1657 142.771 55.331 137.502 55.331ZM137.502 50.315C141.707 50.315 145.507 49.3777 148.902 47.503C152.297 45.5777 154.957 42.943 156.882 39.599C158.807 36.2043 159.77 32.4297 159.77 28.275C159.77 24.1203 158.807 20.371 156.882 17.027C154.957 13.6323 152.297 10.9977 148.902 9.123C145.507 7.19766 141.707 6.235 137.502 6.235C133.297 6.235 129.471 7.19766 126.026 9.123C122.631 10.9977 119.946 13.6323 117.97 17.027C116.045 20.371 115.082 24.1203 115.082 28.275C115.082 32.4297 116.045 36.2043 117.97 39.599C119.946 42.943 122.631 45.5777 126.026 47.503C129.471 49.3777 133.297 50.315 137.502 50.315ZM197.912 1.675C204.701 1.675 210.021 3.29633 213.872 6.539C217.723 9.78166 219.648 14.2403 219.648 19.915C219.648 25.5897 217.723 30.0483 213.872 33.291C210.021 36.483 204.701 38.079 197.912 38.079H183.624V54.875H178V1.675H197.912ZM197.76 33.139C203.029 33.139 207.057 31.999 209.844 29.719C212.631 27.3883 214.024 24.1203 214.024 19.915C214.024 15.6083 212.631 12.315 209.844 10.035C207.057 7.70433 203.029 6.539 197.76 6.539H183.624V33.139H197.76ZM266.143 27.439H277.391V49.023C274.503 51.2017 271.159 52.8737 267.359 54.039C263.559 55.2043 259.733 55.787 255.883 55.787C250.36 55.787 245.395 54.6217 240.987 52.291C236.579 49.9097 233.108 46.6417 230.575 42.487C228.092 38.2817 226.851 33.5443 226.851 28.275C226.851 23.0057 228.092 18.2937 230.575 14.139C233.108 9.93367 236.604 6.66567 241.063 4.335C245.521 1.95367 250.537 0.762999 256.111 0.762999C260.772 0.762999 265.003 1.54833 268.803 3.119C272.603 4.68966 275.795 6.96966 278.379 9.959L270.475 17.255C266.675 13.2523 262.089 11.251 256.719 11.251C253.324 11.251 250.309 11.9603 247.675 13.379C245.04 14.7977 242.988 16.799 241.519 19.383C240.049 21.967 239.315 24.931 239.315 28.275C239.315 31.5683 240.049 34.507 241.519 37.091C242.988 39.675 245.015 41.7017 247.599 43.171C250.233 44.5897 253.223 45.299 256.567 45.299C260.113 45.299 263.305 44.539 266.143 43.019V27.439ZM312.464 55.787C304.864 55.787 298.936 53.6843 294.68 49.479C290.474 45.2737 288.372 39.2697 288.372 31.467V1.675H300.684V31.011C300.684 40.5363 304.636 45.299 312.54 45.299C316.39 45.299 319.329 44.159 321.356 41.879C323.382 39.5483 324.396 35.9257 324.396 31.011V1.675H336.556V31.467C336.556 39.2697 334.428 45.2737 330.172 49.479C325.966 53.6843 320.064 55.787 312.464 55.787ZM348.722 1.675H361.034V54.875H348.722V1.675ZM373.66 1.675H397.828C403.604 1.675 408.696 2.78966 413.104 5.019C417.562 7.19766 421.008 10.2883 423.44 14.291C425.922 18.2937 427.164 22.955 427.164 28.275C427.164 33.595 425.922 38.2563 423.44 42.259C421.008 46.2617 417.562 49.3777 413.104 51.607C408.696 53.7857 403.604 54.875 397.828 54.875H373.66V1.675ZM397.22 44.767C402.54 44.767 406.77 43.2977 409.912 40.359C413.104 37.3697 414.7 33.3417 414.7 28.275C414.7 23.2083 413.104 19.2057 409.912 16.267C406.77 13.2777 402.54 11.783 397.22 11.783H385.972V44.767H397.22ZM477.641 44.995V54.875H436.449V1.675H476.653V11.555H448.685V23.107H473.385V32.683H448.685V44.995H477.641Z" fill="white"/>
</svg>
